<mxfile host="app.diagrams.net" modified="2023-12-15T01:24:06.436Z" agent="Mozilla/5.0 (Windows NT 10.0; Win64; x64) AppleWebKit/537.36 (KHTML, like Gecko) Chrome/120.0.0.0 Safari/537.36 Edg/120.0.0.0" version="22.1.9" etag="mN-gT2_T-2-ytlSrLMkL" type="github">
  <diagram name="第 1 页" id="IRyI0qfTR5pbfn_mzIuA">
    <mxGraphModel>
      <root>
        <mxCell id="0" />
        <mxCell id="1" parent="0" />
      </root>
    </mxGraphModel>
  </diagram>
</mxfile>
